<?xml version="1.0" standalone="no"?>
<!DOCTYPE svg PUBLIC "-//W3C//DTD SVG 20010904//EN"
 "http://www.w3.org/TR/2001/REC-SVG-20010904/DTD/svg10.dtd">
<svg version="1.0" xmlns="http://www.w3.org/2000/svg"
 width="512.000000pt" height="512.000000pt" viewBox="0 0 512.000000 512.000000"
 preserveAspectRatio="xMidYMid meet">

<g transform="translate(0.000000,512.000000) scale(0.100000,-0.100000)"
fill="#000000" stroke="none">
<path d="M3282 5087 c-53 -85 -66 -129 -66 -227 0 -84 3 -102 29 -155 35 -73
114 -154 185 -190 l54 -27 23 28 c46 57 67 131 68 234 0 83 -3 102 -27 152
-35 75 -104 148 -177 187 -32 17 -61 31 -64 31 -3 0 -14 -15 -25 -33z"/>
<path d="M4030 4890 c-101 -20 -202 -103 -251 -205 -16 -33 -29 -64 -29 -70
-1 -5 -49 -46 -107 -90 -853 -642 -1598 -1566 -2149 -2667 -279 -557 -523
-1187 -658 -1698 -25 -94 -31 -132 -23 -135 18 -7 101 -24 103 -22 1 1 20 71
43 156 237 872 689 1851 1209 2616 451 664 980 1229 1567 1672 l80 60 81 -5
c97 -5 169 13 240 60 81 55 147 159 167 265 6 32 6 32 -59 53 -66 20 -148 24
-214 10z"/>
<path d="M2796 4708 c-71 -109 -87 -268 -36 -372 30 -64 118 -157 175 -187
l46 -24 21 25 c12 14 35 54 52 90 69 145 39 316 -76 430 -38 38 -116 90 -135
90 -7 0 -28 -24 -47 -52z"/>
<path d="M3892 4359 c-61 -12 -141 -50 -184 -88 l-37 -32 22 -37 c124 -212
405 -257 596 -97 l30 26 -20 34 c-62 104 -165 176 -279 194 -72 12 -69 12
-128 0z"/>
<path d="M2272 4237 c-47 -59 -73 -174 -61 -267 11 -94 37 -148 100 -215 50
-53 152 -115 189 -115 20 0 67 97 78 162 11 65 -3 179 -28 229 -49 96 -131
169 -227 203 -32 11 -44 12 -51 3z"/>
<path d="M3382 3952 c-60 -22 -162 -88 -162 -107 0 -22 62 -105 104 -139 56
-46 111 -72 182 -87 104 -21 236 16 323 91 l34 29 -33 51 c-40 62 -97 112
-169 147 -73 36 -200 43 -279 15z"/>
<path d="M1812 3623 c-108 -212 -38 -439 168 -541 35 -18 69 -32 76 -32 18 0
58 81 74 149 39 164 -52 353 -205 426 -87 41 -92 41 -113 -2z"/>
<path d="M2970 3531 c-62 -15 -126 -48 -180 -90 l-25 -20 19 -36 c51 -94 170
-177 282 -195 103 -17 226 19 317 94 29 23 29 23 12 56 -47 91 -173 183 -267
195 -24 3 -54 8 -68 10 -14 1 -54 -4 -90 -14z"/>
<path d="M1350 2944 c-18 -46 -23 -79 -23 -146 1 -79 4 -93 38 -161 26 -53 51
-87 86 -117 57 -48 139 -88 189 -92 35 -3 35 -3 57 62 39 115 25 245 -37 335
-59 85 -165 157 -254 172 -33 5 -34 5 -56 -53z"/>
<path d="M2620 2989 c-60 -12 -159 -61 -192 -96 l-28 -29 34 -50 c119 -176
346 -229 523 -122 97 59 100 72 34 156 -86 108 -241 167 -371 141z"/>
<path d="M2221 2405 c-63 -14 -157 -63 -189 -98 -15 -17 -15 -21 3 -54 71
-132 253 -220 399 -192 59 11 158 58 199 94 26 23 27 26 13 53 -45 87 -172
183 -261 197 -85 13 -102 13 -164 0z"/>
<path d="M964 2262 c-65 -155 -31 -338 82 -442 46 -42 143 -93 200 -105 32 -6
32 -6 52 57 27 85 32 127 22 195 -21 152 -128 270 -288 317 l-52 15 -16 -37z"/>
<path d="M1830 1723 c-42 -8 -163 -70 -188 -96 -32 -34 -24 -53 49 -131 41
-44 77 -72 121 -92 56 -26 74 -29 163 -29 89 0 106 3 155 27 30 15 72 41 92
58 38 31 38 31 22 62 -24 46 -102 126 -151 155 -75 44 -176 61 -263 46z"/>
</g>
</svg>
