<svg width="216" height="99" viewBox="0 0 216 99" fill="none" xmlns="http://www.w3.org/2000/svg">
<path d="M195.858 15.5159C196.282 13.9364 196.704 13.2893 198.017 12.1728C198.291 11.9353 198.552 11.7462 198.606 11.7605C198.659 11.7749 199.117 12.1393 199.614 12.5663C200.749 13.5441 201.666 15.0508 201.967 16.4271C202.179 17.3478 202.151 17.6684 201.792 19.0062C201.329 20.6616 200.635 21.7538 199.568 22.4525L199.036 22.7938L198.189 22.1003C197.077 21.1804 196.016 19.497 195.707 18.1529C195.471 17.1743 195.496 16.8698 195.858 15.5159Z" fill="#3C6A26"/>
<path d="M205.153 21.0297C206.469 19.62 208.63 18.7654 210.52 18.9261C211.758 19.0162 213.205 19.4729 214.297 20.111C215.366 20.7604 215.366 20.7604 215.121 21.2475C214.306 22.8603 212.679 24.2209 210.995 24.7199C209.525 25.1378 208.162 25.0835 206.452 24.539L205.027 24.0709L203.34 24.6553C190.947 28.9877 179.063 35.5639 168.144 44.1089C163.481 47.7557 158.857 51.9205 154.477 56.3761H151.469C151.696 56.1379 151.924 55.9008 152.152 55.6651C166.743 40.5548 184.034 29.2255 202.034 22.958C203.26 22.5263 204.294 22.095 204.333 22.0192C204.359 21.9225 204.725 21.485 205.153 21.0297Z" fill="#3C6A26"/>
<path d="M174.153 56.1334C174.335 56.0072 174.32 55.8784 174.229 55.5344C173.801 53.9169 171.949 51.762 170.42 51.1106C168.959 50.4945 168.656 50.4132 167.493 50.3261C166.307 50.2504 164.418 50.5906 163.695 51.0016C163.354 51.2039 163.337 51.2684 163.516 51.8864C164.044 53.7552 165.818 55.5217 167.833 56.3761H173.343C173.61 56.2875 173.88 56.2066 174.153 56.1334Z" fill="#3C6A26"/>
<path d="M187.704 15.9568C185.966 17.374 184.993 19.8603 185.455 21.7805C185.714 22.9556 186.883 24.8755 187.771 25.6317L188.489 26.2386L188.972 25.9361C189.246 25.7678 189.83 25.2331 190.289 24.7342C192.147 22.7271 192.35 19.8274 190.789 17.4399C190.275 16.6456 189.107 15.4344 188.768 15.3435C188.643 15.31 188.164 15.5964 187.704 15.9568Z" fill="#3C6A26"/>
<path d="M202.098 27.3629C203.03 26.9561 204.622 26.7263 205.763 26.8247L205.835 26.8305C206.291 26.8671 206.541 26.8871 206.782 26.9436C207.073 27.0119 207.352 27.1334 207.967 27.4017L208.048 27.437C210.005 28.2724 211.533 29.9256 212.191 31.8985L212.401 32.5422L211.753 32.8177C207.652 34.483 202.83 32.4135 201.532 28.4033L201.299 27.7017L202.098 27.3629Z" fill="#3C6A26"/>
<path d="M176.315 21.0418C175.221 21.768 174.26 23.4972 174.073 25.0536C173.863 26.6213 174.094 27.616 174.93 28.9973C175.593 30.0907 177.147 31.578 177.807 31.7549C178.164 31.8506 179.422 30.512 179.899 29.5169C180.376 28.5219 180.619 26.6175 180.388 25.692C179.928 23.9102 178.78 22.3414 177.213 21.3342C176.689 21.0038 176.479 20.9303 176.315 21.0418Z" fill="#3C6A26"/>
<path d="M191.546 31.8949C191.628 31.5886 193.734 31.0128 194.9 30.9452C196.432 30.8718 198.669 31.5921 199.816 32.5215C200.95 33.4301 201.752 34.5086 202.198 35.6993L202.567 36.6792L201.835 36.984C199.958 37.7766 197.442 37.7416 195.676 36.9056C194.473 36.3242 193.603 35.6421 192.802 34.6328C192.199 33.8838 191.451 32.2495 191.546 31.8949Z" fill="#3C6A26"/>
<path d="M165.451 28.7379C162.608 31.6383 162.877 35.632 166.114 38.2614C166.661 38.7189 167.208 39.1072 167.333 39.1407C167.654 39.2268 168.718 38.1126 169.297 37.0931C170.702 34.6363 169.893 31.1547 167.477 29.2462C166.101 28.1692 166.012 28.1453 165.451 28.7379Z" fill="#3C6A26"/>
<path d="M182.125 36.3497C183.27 35.931 184.555 35.7052 185.727 35.7601C186.413 35.7711 187.148 35.8818 187.394 35.9649C187.473 35.9974 187.581 36.0432 187.705 36.0958C187.961 36.2041 188.285 36.3416 188.565 36.4514C190.191 37.0944 192.043 39.18 192.489 40.8716C192.569 41.1741 192.609 41.3273 192.555 41.4329C192.5 41.5413 192.346 41.5992 192.033 41.7168C190.085 42.4904 187.733 42.4822 185.968 41.7155C184.046 40.8896 182.28 38.9826 181.776 37.2236L181.592 36.5524L182.125 36.3497Z" fill="#3C6A26"/>
<path d="M154.271 37.4721C153.751 38.1274 153.519 38.6354 153.23 39.7153C152.907 40.9934 152.9 41.2334 153.213 42.4921C153.448 43.4707 153.748 44.1383 154.243 44.7893C155.053 45.8356 156.344 46.8726 157.22 47.1762C157.832 47.392 157.832 47.392 158.505 46.4496C159.698 44.7825 160.01 42.6202 159.291 40.873C158.605 39.2208 157.024 37.5532 155.5 36.8857C154.932 36.6473 154.914 36.6425 154.271 37.4721Z" fill="#3C6A26"/>
<path d="M173.296 43.4507C174.036 43.0444 176.015 42.7282 177.138 42.8218C179.571 43.0246 182.083 44.717 183.152 46.8691C183.968 48.5388 183.858 48.734 181.871 49.2209C178.249 50.0989 174.426 48.1588 173.062 44.7527L172.67 43.7842L173.296 43.4507Z" fill="#3C6A26"/>
<path d="M154.493 2.26615C153.221 3.34079 152.412 5.2144 152.472 6.90628C152.49 7.45485 152.534 7.95367 152.579 8.02977C152.601 8.10131 152.228 9.01145 151.736 10.0409C145.214 23.5655 141.578 39.2618 141.145 55.6637C141.72 55.71 142.285 55.7853 142.839 55.8894C143.106 51.7371 143.44 47.6902 143.86 44.2245C145.322 32.1375 148.606 20.672 153.601 10.2823L154.284 8.87108L155.459 8.27607C156.858 7.55101 157.737 6.73747 158.39 5.56427C159.124 4.20833 159.287 2.35289 158.79 0.846007C158.64 0.391404 158.64 0.391406 157.573 0.653443C156.499 0.936289 155.318 1.55211 154.493 2.26615Z" fill="#B6D2A8"/>
<path d="M188.622 59.0678C192.209 56.6374 195.544 53.9666 198.579 51.0832C199.211 50.4864 199.785 50.0034 199.842 50.0032C199.908 50.0174 200.28 49.9338 200.683 49.8187C201.925 49.4683 203.096 48.4443 203.58 47.2707C203.906 46.506 204.078 45.5052 204.033 44.6599C203.996 44.1263 203.982 43.9334 203.882 43.8628C203.826 43.8228 203.742 43.8221 203.61 43.8208C202.4 43.8111 201.091 44.3622 200.278 45.2109C199.579 45.9578 199.193 46.7855 198.993 47.97L198.834 48.9611L197.969 49.7859C194.726 52.8601 191.177 55.6781 187.364 58.2153C187.796 58.481 188.216 58.7652 188.622 59.0678Z" fill="#B6D2A8"/>
<path d="M185.72 57.3229C185.809 57.1705 185.889 57.0161 185.961 56.8607C186.164 56.4492 186.324 55.9775 186.35 55.8059C186.355 55.749 186.361 55.6707 186.367 55.5807C186.381 55.3953 186.399 55.1602 186.419 54.9601C186.536 53.7952 185.862 52.0537 184.993 51.2696C184.837 51.1296 184.758 51.0586 184.679 51.0582C184.598 51.0578 184.516 51.1318 184.35 51.2818C183.292 52.2039 182.576 53.6055 182.491 54.891C182.462 55.2976 182.492 55.7244 182.571 56.146C183.486 56.3849 184.381 56.7048 185.252 57.1083C185.409 57.1777 185.565 57.2493 185.72 57.3229Z" fill="#B6D2A8"/>
<path d="M178.944 55.6196C178.833 55.3949 178.705 55.1823 178.561 54.9862C177.817 53.989 177.668 53.9944 176.769 55.0271C176.577 55.2484 176.408 55.4832 176.261 55.7283C176.924 55.6479 177.603 55.6079 178.295 55.6079C178.512 55.6079 178.728 55.6118 178.944 55.6196Z" fill="#B6D2A8"/>
<path d="M143.279 9.26332C142.56 8.02046 142.42 7.35677 142.541 5.84797C142.563 5.53027 142.607 5.25063 142.65 5.22624C142.692 5.20185 143.202 5.14368 143.776 5.09916C145.088 5.00037 146.593 5.3653 147.635 6.03196C148.339 6.47098 148.52 6.68756 149.13 7.74018C149.871 9.05458 150.12 10.1638 149.892 11.2606L149.774 11.8026L148.817 11.8991C147.556 12.0197 145.852 11.6346 144.824 10.9933C144.07 10.5325 143.896 10.3286 143.279 9.26332Z" fill="#B6D2A8"/>
<path d="M195.977 49.6947C196.505 49.265 197.13 48.388 197.421 47.6791L197.44 47.6342C197.558 47.3515 197.623 47.1968 197.663 47.0361C197.712 46.842 197.725 46.639 197.754 46.1909L197.758 46.1316C197.861 44.7107 197.346 43.2947 196.373 42.2984L196.055 41.9759L195.692 42.2769C193.444 44.2063 193.197 47.7102 195.185 49.7123L195.531 50.0661L195.977 49.6947Z" fill="#B6D2A8"/>
<path d="M201.113 57.0402C202.183 57.2727 202.697 57.22 203.764 56.7809C203.99 56.6907 204.182 56.5933 204.19 56.557C204.198 56.5207 204.121 56.1369 204.02 55.7097C203.786 54.7347 203.171 53.7273 202.444 53.1262C201.961 52.7174 201.762 52.6361 200.856 52.4391C199.729 52.2068 198.866 52.2851 198.123 52.706L197.757 52.9176L197.91 53.6345C198.116 54.5782 198.793 55.7255 199.497 56.3218C200.008 56.7619 200.196 56.8409 201.113 57.0402Z" fill="#B6D2A8"/>
<path d="M198.35 61.757C196.974 62.3568 195.196 62.1729 194.195 61.3096C193.575 60.795 192.792 59.5105 192.614 58.7502L192.473 58.1372L192.801 57.9426C192.985 57.8308 193.482 57.6476 193.92 57.5275C195.684 57.0374 197.472 57.8059 198.414 59.4666C198.729 60.0162 199.091 61.0825 199.041 61.3122C199.023 61.3969 198.706 61.5938 198.35 61.757Z" fill="#B6D2A8"/>
<path d="M190.045 54.5835C190.252 54.6285 191.241 53.552 191.639 52.8789C192.152 51.9903 192.409 50.4383 192.208 49.4704C192.015 48.5169 191.619 47.7092 191.048 47.0785L190.578 46.5585L190.172 46.9007C189.125 47.7745 188.374 49.2825 188.33 50.5897C188.307 51.4836 188.446 52.2102 188.801 52.9963C189.062 53.5848 189.805 54.5313 190.045 54.5835Z" fill="#B6D2A8"/>
<path d="M140.72 19.6154C139.24 18.7111 138.298 16.5645 138.495 14.605C138.557 14.0955 138.676 13.6204 138.774 13.5635C139.041 13.4091 140.518 13.4345 141.331 13.6075C143.783 14.1185 145.459 16.0433 145.554 18.4431C145.58 19.0379 145.55 19.7321 145.484 20.0072L145.373 20.495L144.55 20.5645C143.53 20.6474 141.611 20.1832 140.72 19.6154Z" fill="#B6D2A8"/>
<path d="M156.452 10.1221C155.683 10.7702 154.838 11.9024 154.513 12.7338L154.228 13.4404L154.809 13.7309C158.107 15.4115 162.384 13.6981 163.893 10.1164L164.123 9.54276L163.593 9.27414C161.959 8.45917 159.983 8.3833 158.25 9.08168L158.178 9.11011C157.629 9.326 157.381 9.42378 157.158 9.56237C156.973 9.67711 156.806 9.81982 156.501 10.0807L156.452 10.1221Z" fill="#B6D2A8"/>
<path d="M135.694 28.7197C134.843 27.6378 134.364 25.968 134.592 24.8378C134.624 24.6667 134.8 24.5819 135.33 24.4612C136.928 24.1121 138.616 24.3713 140.008 25.1905C140.727 25.6214 141.76 26.9534 142.082 27.8671C142.405 28.7809 142.457 30.3931 142.176 30.5557C141.656 30.8565 139.768 30.8993 138.677 30.6336C137.3 30.296 136.539 29.8225 135.694 28.7197Z" fill="#B6D2A8"/>
<path d="M152.275 19.4294C151.594 20.1961 150.645 21.8623 150.785 22.1032C150.946 22.3822 152.426 22.9309 153.266 23.0207C154.39 23.1489 155.353 23.0315 156.461 22.6446C158.076 22.0656 159.658 20.5233 160.33 18.865L160.595 18.2208L159.757 17.8423C158.74 17.3811 157.572 17.2104 156.304 17.3517C155.015 17.4886 153.179 18.4321 152.275 19.4294Z" fill="#B6D2A8"/>
<path d="M138.966 41.8592C135.324 42.2402 132.675 39.9303 132.636 36.3638C132.616 35.6478 132.686 35.6071 134.209 35.4199C136.894 35.102 139.559 36.7592 140.215 39.1561C140.489 40.1486 140.522 41.501 140.269 41.6473C140.171 41.7042 139.59 41.803 138.966 41.8592Z" fill="#B6D2A8"/>
<path d="M149.578 28.1176C148.817 28.8118 148.16 29.7505 147.71 30.7221L147.505 31.179L148.036 31.4811C149.443 32.2587 151.723 32.344 153.429 31.6619C155 31.0402 156.464 29.5838 157.192 27.893C157.43 27.3656 157.43 27.3655 156.949 27.0852C155.621 26.3132 153.176 26.1706 151.768 26.7825C151.526 26.8882 151.239 27.0045 151.013 27.0962L151.012 27.0968C150.903 27.1411 150.808 27.1797 150.739 27.2085C150.535 27.3096 150.01 27.6981 149.578 28.1176Z" fill="#B6D2A8"/>
<path d="M131.878 50.769C131.386 49.9193 131.215 49.4601 131.13 48.7304C131.013 47.816 131.027 47.8079 131.527 47.6031C132.888 47.0699 134.905 47.1213 136.358 47.7197C137.889 48.3572 139.04 49.892 139.336 51.6675C139.504 52.6707 139.504 52.6707 138.99 52.9171C138.259 53.2728 136.813 53.4321 135.66 53.2867C134.948 53.1907 134.348 52.9627 133.594 52.5019C132.617 51.9159 132.472 51.7628 131.878 50.769Z" fill="#B6D2A8"/>
<path d="M148.639 37.8364C147.884 38.4763 146.853 39.9024 146.646 40.6146L146.466 41.2099L147.311 41.5677C150.274 42.8324 153.851 41.6594 155.552 38.8636C156.482 37.3269 156.429 37.1377 154.885 36.6088C152.884 35.9382 150.274 36.4499 148.639 37.8364Z" fill="#B6D2A8"/>
<path d="M145.385 51.2653C145.577 50.5613 146.538 49.1758 147.32 48.4861C148.096 47.8173 148.335 47.6791 149.624 47.153C150.977 46.6071 153.465 46.7923 154.736 47.5298C155.131 47.7584 155.139 47.8046 154.942 48.3076C154.631 49.0975 153.585 50.4983 152.837 51.1174C150.991 52.6593 147.789 53.0226 145.823 51.9257C145.328 51.6535 145.299 51.6028 145.385 51.2653Z" fill="#B6D2A8"/>
<path d="M9.49688 78.7039H11.5609C13.9289 78.7039 15.6249 78.3999 16.6489 77.7919C17.6729 77.1839 18.1849 76.2079 18.1849 74.8639C18.1849 73.5199 17.6729 72.5439 16.6489 71.9359C15.6249 71.3279 13.9289 71.0239 11.5609 71.0239H9.49688V78.7039ZM9.49688 64.0159H11.2249C14.1689 64.0159 15.6409 62.8479 15.6409 60.5119C15.6409 58.1759 14.1689 57.0079 11.2249 57.0079H9.49688V64.0159ZM0.0888824 49.8079H14.1049C17.4329 49.8079 19.9609 50.6079 21.6889 52.2079C23.4169 53.8079 24.2809 56.1119 24.2809 59.1199C24.2809 60.9439 23.9449 62.4639 23.2729 63.6799C22.6329 64.8639 21.6409 65.8719 20.2969 66.7039C21.6409 66.9599 22.7769 67.3599 23.7049 67.9039C24.6649 68.4159 25.4329 69.0559 26.0089 69.8239C26.6169 70.5919 27.0489 71.4559 27.3049 72.4159C27.5609 73.3759 27.6889 74.3999 27.6889 75.4879C27.6889 77.1839 27.3849 78.6879 26.7769 79.9999C26.2009 81.3119 25.3689 82.4159 24.2809 83.3119C23.2249 84.2079 21.9289 84.8799 20.3929 85.3279C18.8569 85.7759 17.1289 85.9999 15.2089 85.9999H0.0888824V49.8079Z" fill="#FF6230" fill-opacity="0.96"/>
<path d="M41.1953 61.3759V85.9999H32.5073V61.3759H41.1953ZM31.9313 51.9199C31.9313 51.2479 32.0593 50.6239 32.3153 50.0479C32.5713 49.4399 32.9233 48.9119 33.3713 48.4639C33.8193 48.0159 34.3313 47.6639 34.9073 47.4079C35.5153 47.1519 36.1553 47.0239 36.8273 47.0239C37.4993 47.0239 38.1233 47.1519 38.6993 47.4079C39.3073 47.6639 39.8353 48.0159 40.2833 48.4639C40.7313 48.9119 41.0833 49.4399 41.3393 50.0479C41.5953 50.6239 41.7233 51.2479 41.7233 51.9199C41.7233 52.5919 41.5953 53.2319 41.3393 53.8399C41.0833 54.4159 40.7313 54.9279 40.2833 55.3759C39.8353 55.8239 39.3073 56.1759 38.6993 56.4319C38.1233 56.6879 37.4993 56.8159 36.8273 56.8159C36.1553 56.8159 35.5153 56.6879 34.9073 56.4319C34.3313 56.1759 33.8193 55.8239 33.3713 55.3759C32.9233 54.9279 32.5713 54.4159 32.3153 53.8399C32.0593 53.2319 31.9313 52.5919 31.9313 51.9199Z" fill="#FF6230" fill-opacity="0.96"/>
<path d="M55.3403 73.5679C55.3403 74.3999 55.4843 75.1679 55.7723 75.8719C56.0923 76.5439 56.4923 77.1359 56.9723 77.6479C57.4843 78.1599 58.0763 78.5599 58.7483 78.8479C59.4523 79.1359 60.1883 79.2799 60.9563 79.2799C61.7243 79.2799 62.4443 79.1359 63.1163 78.8479C63.8203 78.5599 64.4123 78.1599 64.8923 77.6479C65.4043 77.1359 65.8043 76.5439 66.0923 75.8719C66.4123 75.1679 66.5723 74.4159 66.5723 73.6159C66.5723 72.8479 66.4123 72.1279 66.0923 71.4559C65.8043 70.7519 65.4043 70.1439 64.8923 69.6319C64.4123 69.1199 63.8203 68.7199 63.1163 68.4319C62.4443 68.1439 61.7243 67.9999 60.9563 67.9999C60.1883 67.9999 59.4523 68.1439 58.7483 68.4319C58.0763 68.7199 57.4843 69.1199 56.9723 69.6319C56.4923 70.1439 56.0923 70.7359 55.7723 71.4079C55.4843 72.0799 55.3403 72.7999 55.3403 73.5679ZM46.1723 73.4719C46.1723 71.6479 46.5403 69.9519 47.2763 68.3839C48.0123 66.7839 49.0363 65.4079 50.3483 64.2559C51.6603 63.0719 53.2123 62.1439 55.0043 61.4719C56.8283 60.7999 58.8123 60.4639 60.9563 60.4639C63.0683 60.4639 65.0203 60.7999 66.8123 61.4719C68.6363 62.1119 70.2043 63.0239 71.5163 64.2079C72.8603 65.3599 73.9003 66.7519 74.6363 68.3839C75.3723 69.9839 75.7403 71.7599 75.7403 73.7119C75.7403 75.6639 75.3563 77.4559 74.5883 79.0879C73.8523 80.6879 72.8283 82.0799 71.5163 83.2639C70.2043 84.4159 68.6203 85.3119 66.7643 85.9519C64.9403 86.5919 62.9563 86.9119 60.8123 86.9119C58.7003 86.9119 56.7483 86.5919 54.9563 85.9519C53.1643 85.3119 51.6123 84.3999 50.3003 83.2159C49.0203 82.0319 48.0123 80.6239 47.2763 78.9919C46.5403 77.3279 46.1723 75.4879 46.1723 73.4719Z" fill="#FF6230" fill-opacity="0.96"/>
<path d="M80.7416 61.3759H89.4296V64.3999C91.7976 62.1279 94.4536 60.9919 97.3976 60.9919C101.046 60.9919 103.83 62.5279 105.75 65.5999C107.702 62.4959 110.486 60.9439 114.102 60.9439C115.254 60.9439 116.342 61.1199 117.366 61.4719C118.39 61.7919 119.27 62.3199 120.006 63.0559C120.742 63.7599 121.318 64.6879 121.734 65.8399C122.182 66.9919 122.406 68.3839 122.406 70.0159V85.9999H113.718V73.8559C113.718 72.6079 113.622 71.5839 113.43 70.7839C113.27 69.9839 113.014 69.3599 112.662 68.9119C112.342 68.4639 111.958 68.1599 111.51 67.9999C111.062 67.8399 110.582 67.7599 110.07 67.7599C107.286 67.7599 105.894 69.7919 105.894 73.8559V85.9999H97.2056V73.8559C97.2056 72.6079 97.1256 71.5839 96.9656 70.7839C96.8056 69.9519 96.5656 69.2959 96.2456 68.8159C95.9576 68.3359 95.5736 68.0159 95.0936 67.8559C94.6136 67.6639 94.0536 67.5679 93.4136 67.5679C92.8696 67.5679 92.3576 67.6479 91.8776 67.8079C91.3976 67.9679 90.9656 68.2879 90.5816 68.7679C90.2296 69.2159 89.9416 69.8559 89.7176 70.6879C89.5256 71.4879 89.4296 72.5439 89.4296 73.8559V85.9999H80.7416V61.3759Z" fill="#FF6230" fill-opacity="0.96"/>
<path d="M136.431 73.6159C136.431 74.4159 136.575 75.1679 136.863 75.8719C137.151 76.5439 137.535 77.1359 138.015 77.6479C138.527 78.1599 139.119 78.5599 139.791 78.8479C140.495 79.1359 141.247 79.2799 142.047 79.2799C142.815 79.2799 143.535 79.1359 144.207 78.8479C144.911 78.5599 145.503 78.1599 145.983 77.6479C146.495 77.1359 146.895 76.5439 147.183 75.8719C147.503 75.1999 147.663 74.4799 147.663 73.7119C147.663 72.9439 147.503 72.2239 147.183 71.5519C146.895 70.8479 146.495 70.2399 145.983 69.7279C145.503 69.2159 144.911 68.8159 144.207 68.5279C143.535 68.2399 142.815 68.0959 142.047 68.0959C141.247 68.0959 140.495 68.2399 139.791 68.5279C139.119 68.8159 138.527 69.2159 138.015 69.7279C137.535 70.2399 137.151 70.8319 136.863 71.5039C136.575 72.1439 136.431 72.8479 136.431 73.6159ZM147.375 61.3759H156.111V85.9999H147.375V83.2639C145.519 85.5999 143.007 86.7679 139.839 86.7679C138.047 86.7679 136.399 86.4479 134.895 85.8079C133.391 85.1359 132.079 84.2079 130.959 83.0239C129.839 81.8399 128.959 80.4479 128.319 78.8479C127.711 77.2479 127.407 75.5039 127.407 73.6159C127.407 71.8559 127.711 70.1919 128.319 68.6239C128.927 67.0239 129.775 65.6319 130.863 64.4479C131.951 63.2639 133.247 62.3359 134.751 61.6639C136.255 60.9599 137.919 60.6079 139.743 60.6079C142.815 60.6079 145.359 61.6799 147.375 63.8239V61.3759Z" fill="#FF6230" fill-opacity="0.96"/>
<path d="M181.655 73.7599C181.655 72.9919 181.511 72.2719 181.223 71.5999C180.967 70.8959 180.583 70.2879 180.071 69.7759C179.559 69.2639 178.951 68.8639 178.247 68.5759C177.575 68.2559 176.839 68.0959 176.039 68.0959C175.271 68.0959 174.551 68.2399 173.879 68.5279C173.207 68.8159 172.615 69.2159 172.103 69.7279C171.623 70.2399 171.223 70.8479 170.903 71.5519C170.615 72.2239 170.471 72.9439 170.471 73.7119C170.471 74.4799 170.615 75.1999 170.903 75.8719C171.191 76.5439 171.591 77.1359 172.103 77.6479C172.615 78.1279 173.207 78.5279 173.879 78.8479C174.583 79.1359 175.319 79.2799 176.087 79.2799C176.855 79.2799 177.575 79.1359 178.247 78.8479C178.919 78.5599 179.495 78.1599 179.975 77.6479C180.487 77.1359 180.887 76.5439 181.175 75.8719C181.495 75.1999 181.655 74.4959 181.655 73.7599ZM170.711 98.2879H162.023V61.3759H170.711V64.1119C172.567 61.7759 175.095 60.6079 178.295 60.6079C180.055 60.6079 181.687 60.9599 183.191 61.6639C184.727 62.3359 186.055 63.2639 187.175 64.4479C188.295 65.6319 189.159 67.0239 189.767 68.6239C190.407 70.2239 190.727 71.9359 190.727 73.7599C190.727 75.5839 190.407 77.2799 189.767 78.8479C189.159 80.4159 188.295 81.7919 187.175 82.9759C186.087 84.1599 184.791 85.0879 183.287 85.7599C181.783 86.4319 180.151 86.7679 178.391 86.7679C175.319 86.7679 172.759 85.7119 170.711 83.5999V98.2879Z" fill="#FF6230" fill-opacity="0.96"/>
</svg>
